<svg width="50" height="50" viewBox="0 0 50 50" fill="none" xmlns="http://www.w3.org/2000/svg">
<path d="M44.9845 37.2699C42.691 40.187 39.7454 42.5258 36.3847 44.0986C33.0237 45.6715 29.341 46.4348 25.6319 46.327C21.9226 46.2193 18.2904 45.2437 15.0264 43.4785C11.7625 41.713 8.95776 39.2072 6.83738 36.1619C4.71696 33.1169 3.33988 29.6169 2.81661 25.9432C2.29337 22.2696 2.6385 18.5244 3.82437 15.0083C5.0102 11.4921 7.00373 8.30289 9.64498 5.69648C12.2862 3.09007 15.5016 1.13905 19.0332 0C14.4825 1.11847 10.3376 3.4935 7.07165 6.85416C3.80564 10.2148 1.54998 14.4258 0.561962 19.0067C-0.426057 23.5876 -0.106645 28.3539 1.48377 32.7619C3.07418 37.1702 5.87155 41.0424 9.55676 43.9373C13.242 46.8321 17.6666 48.6329 22.3259 49.1341C26.9853 49.6353 31.6917 48.817 35.9084 46.7722C40.125 44.7273 43.682 41.5387 46.1736 37.5698C48.6651 33.6008 49.991 29.0114 50 24.3252C49.6653 29.0458 47.9176 33.5562 44.9845 37.2699Z" fill="url(#paint0_linear)"/>
<path d="M39.7659 12.203C38.3035 14.0656 36.6404 15.7617 34.8067 17.2604C34.7882 17.2757 34.7731 17.2949 34.7628 17.3166C34.7526 17.3384 34.7472 17.3622 34.7472 17.3862V40.6551C34.7472 40.8424 34.6877 41.0247 34.5773 41.1759C34.4669 41.3272 34.3113 41.4394 34.1331 41.4964L34.1141 41.5025C33.982 41.5449 33.8418 41.5554 33.7048 41.5332C33.5678 41.5113 33.4379 41.4569 33.326 41.3753C33.2138 41.2934 33.1227 41.1863 33.0598 41.0627C32.9969 40.9389 32.9642 40.8021 32.9642 40.6634V18.9696C32.9642 18.9397 32.9562 18.9105 32.9408 18.885C32.9255 18.8594 32.9033 18.8386 32.8767 18.8248C32.8504 18.811 32.8206 18.8047 32.7909 18.8066C32.7611 18.8086 32.7324 18.8186 32.708 18.8357C30.28 20.5075 27.633 21.8365 24.842 22.785C24.8098 22.7958 24.7818 22.8165 24.7618 22.8441C24.742 22.8718 24.7313 22.905 24.7313 22.939V41.7317C24.7313 41.8621 24.7023 41.9911 24.6465 42.1088C24.5907 42.2268 24.5095 42.3309 24.4088 42.4138C24.3079 42.4967 24.19 42.5559 24.0635 42.5878C23.937 42.6195 23.805 42.6229 23.677 42.5976L23.6424 42.5907C23.4427 42.5513 23.2631 42.4435 23.1341 42.286C23.0051 42.1285 22.9349 41.9313 22.9354 41.7278C22.94 39.7044 22.9447 36.9802 22.9481 36.9821V23.5785C22.9481 23.5534 22.9423 23.5288 22.9312 23.5063C22.9202 23.4839 22.9041 23.4644 22.8842 23.4492C22.8644 23.4339 22.8413 23.4235 22.8168 23.4187C22.7923 23.4138 22.7669 23.4147 22.7428 23.4212L22.6621 23.4424C20.3852 24.0408 18.3705 25.3763 16.9327 27.2405C15.495 29.1049 14.7151 31.3928 14.7149 33.7469V36.8334C14.7154 37.0058 14.6652 37.1747 14.5707 37.3188C14.4762 37.4631 14.3415 37.5765 14.1833 37.645C14.025 37.7132 13.8502 37.7339 13.6804 37.704C13.5106 37.6742 13.3532 37.5952 13.2279 37.4768C9.73071 34.1155 7.50711 29.6458 6.93584 24.829C6.36457 20.0123 7.48098 15.1464 10.0949 11.0604C12.7088 6.97447 16.6585 3.92116 21.2711 2.42067C25.8837 0.920168 30.8738 1.06532 35.3915 2.8314C31.8345 1.14047 27.89 0.432105 23.9668 0.779783C20.0438 1.12746 16.2852 2.51851 13.081 4.80862C9.87688 7.09875 7.34388 10.2045 5.74476 13.8037C4.14567 17.4029 3.53873 21.3644 3.98694 25.2773C4.43515 29.19 5.92218 32.9118 8.29376 36.056C10.6653 39.2005 13.8351 41.6529 17.4741 43.1592C21.1131 44.6653 25.0889 45.1704 28.9889 44.6222C32.8891 44.0737 36.5712 42.4915 39.6538 40.0401C40.7291 39.298 41.7322 38.4563 42.6493 37.5258L42.7456 37.4226C42.8975 37.2598 42.9818 37.0453 42.9813 36.8224V8.1214C42.9813 8.1214 42.9813 8.01901 42.9813 7.88323C42.9816 7.84693 42.9696 7.81158 42.9477 7.78274C42.9255 7.75393 42.8945 7.73326 42.8594 7.72402C42.8243 7.71478 42.787 7.71748 42.7536 7.7317C42.7202 7.74591 42.6927 7.77082 42.6749 7.80254C41.8268 9.34622 40.8539 10.8179 39.7659 12.203Z" fill="url(#paint1_linear)"/>
<defs>
<linearGradient id="paint0_linear" x1="-3.05389e-08" y1="24.6387" x2="50" y2="24.6387" gradientUnits="userSpaceOnUse">
<stop stop-color="#403BEB"/>
<stop offset="1" stop-color="#22B7A0"/>
</linearGradient>
<linearGradient id="paint1_linear" x1="3.84355" y1="22.7654" x2="42.9813" y2="22.7654" gradientUnits="userSpaceOnUse">
<stop stop-color="#403BEB"/>
<stop offset="1" stop-color="#22B7A0"/>
</linearGradient>
</defs>
</svg>
